<svg width="74" height="70" viewBox="0 0 74 70" fill="none" xmlns="http://www.w3.org/2000/svg">
<path d="M69.9 47H59.3H14.6H4.1C1.8 47 0 48.9 0 51.3V54.8C0 57.2 1.9 59.1 4.1 59.1H5V60.2C5 65.7 9.3 70.3 14.6 70.3H59.2C64.5 70.3 68.8 65.8 68.8 60.2V59.1H69.7C72 59.1 73.8 57.2 73.8 54.8V51.3C74 49 72.1 47 69.9 47ZM66 60.2C66 64.1 63 67.2 59.3 67.2H14.6C10.9 67.2 7.9 64 7.9 60.2V59.1H66V60.2ZM71.1 54.8C71.1 55.5 70.5 56.1 69.9 56.1H68.9H66H8H5H4C3.3 56.1 2.8 55.5 2.8 54.8V51.3C2.8 50.6 3.4 50 4 50H7.7H14.6H59.2H66.1H69.8C70.5 50 71 50.6 71 51.3C71.1 51.3 71.1 54.8 71.1 54.8Z" fill="#81B3D2"/>
<path d="M15.6 38.4L21 42.5L26.3 38.4L31.6 42.5L36.9 38.4L42.3 42.5L47.6 38.4L52.9 42.5L58.3 38.4L63.6 42.5L69.8 37.8L68.1 35.3L63.6 38.7L58.3 34.6L52.9 38.7L47.6 34.6L42.3 38.7L36.9 34.6L31.6 38.7L26.3 34.6L21 38.7L15.6 34.6L10.3 38.7L5.79998 35.3L4.09998 37.8L10.3 42.5L15.6 38.4Z" fill="#81B3D2"/>
<path d="M8 31.5H65.9H68.8C68.8 30.9 68.9 30.3 68.9 29.6C68.9 29.2 68.9 28.8 68.9 28.4C68.2 12.7 54.2 0 37 0C19.7 0 5.7 12.7 5 28.5C5 28.9 5 29.3 5 29.7C5 30.3 5 31 5.1 31.6H8V31.5ZM37 3C52.6 3 65.4 14.3 66 28.5H8C8.6 14.4 21.4 3 37 3Z" fill="#81B3D2"/>
<path d="M37 17.3C38.0493 17.3 38.9 16.4046 38.9 15.3C38.9 14.1955 38.0493 13.3 37 13.3C35.9506 13.3 35.1 14.1955 35.1 15.3C35.1 16.4046 35.9506 17.3 37 17.3Z" fill="#81B3D2"/>
<path d="M29.2001 12.2C30.2494 12.2 31.1 11.3045 31.1 10.2C31.1 9.09538 30.2494 8.19995 29.2001 8.19995C28.1507 8.19995 27.3 9.09538 27.3 10.2C27.3 11.3045 28.1507 12.2 29.2001 12.2Z" fill="#81B3D2"/>
<path d="M44.7001 12.2C45.7494 12.2 46.6 11.3045 46.6 10.2C46.6 9.09538 45.7494 8.19995 44.7001 8.19995C43.6507 8.19995 42.8 9.09538 42.8 10.2C42.8 11.3045 43.6507 12.2 44.7001 12.2Z" fill="#81B3D2"/>
</svg>
