<svg width="18" height="15" viewBox="0 0 18 15" fill="none" xmlns="http://www.w3.org/2000/svg">
<path d="M16.6182 1.52093C16.6791 1.49918 16.7394 1.47763 16.7993 1.45637C16.6422 1.74396 16.4218 1.97117 16.2464 2.1465L15.5393 2.85361L16.5293 2.99503C16.6157 3.00737 16.7007 3.01161 16.7838 3.00927C16.5458 3.22918 16.3075 3.3705 16.1419 3.42571L15.8105 3.53618L15.8002 3.88536C15.7021 7.22288 14.8933 9.8901 13.2879 11.7064C11.6955 13.508 9.25106 14.5487 5.70685 14.5001L5.70685 14.5001H5.7H5.6965H5.69303H5.68959H5.68617H5.68279H5.67944H5.67611H5.67282H5.66955H5.66631H5.6631H5.65992H5.65677H5.65364H5.65055H5.64748H5.64444H5.64143H5.63844H5.63548H5.63255H5.62965H5.62677H5.62393H5.6211H5.61831H5.61554H5.6128H5.61009H5.6074H5.60474H5.6021H5.59949H5.59691H5.59435H5.59181H5.58931H5.58683H5.58437H5.58194H5.57953H5.57715H5.5748H5.57246H5.57016H5.56788H5.56562H5.56339H5.56118H5.55899H5.55683H5.55469H5.55258H5.55049H5.54842H5.54638H5.54436H5.54236H5.54039H5.53844H5.53651H5.5346H5.53272H5.53086H5.52902H5.5272H5.52541H5.52364H5.52189H5.52016H5.51845H5.51677H5.5151H5.51346H5.51184H5.51024H5.50866H5.5071H5.50556H5.50405H5.50255H5.50107H5.49962H5.49818H5.49676H5.49537H5.49399H5.49263H5.4913H5.48998H5.48868H5.4874H5.48614H5.4849H5.48367H5.48247H5.48129H5.48012H5.47897H5.47784H5.47673H5.47563H5.47456H5.4735H5.47246H5.47143H5.47043H5.46944H5.46847H5.46751H5.46658H5.46566H5.46475H5.46386H5.46385H5.46383H5.4638H5.46377H5.46372H5.46371H5.46367H5.46366H5.46361H5.46359H5.46355H5.46352H5.46347H5.46344H5.46339H5.46334H5.46331H5.46324H5.46321H5.46313H5.46311H5.463H5.46299H5.46289H5.46287H5.46277H5.46273H5.46264H5.46258H5.46251H5.46242H5.46237H5.46224H5.46223H5.46214H5.46208H5.46206H5.46192H5.46187H5.46176H5.46166H5.46159H5.46145H5.46142H5.4613H5.46124H5.46122H5.46106H5.46099H5.46087H5.46074H5.46068H5.46048H5.46028H5.46021H5.46007H5.45993H5.45986H5.45967H5.45964H5.45963H5.45942H5.45933H5.4592H5.45901H5.45897H5.45888H5.45874H5.45868H5.4585H5.45834H5.45827H5.45811H5.45802H5.45798H5.45778H5.45762H5.45753H5.45735H5.45728H5.45724H5.45702H5.45685H5.45676H5.45661H5.4565H5.45644H5.45624H5.45603H5.45597H5.45588H5.4557H5.4556H5.45543H5.45517H5.45516H5.45489H5.4547H5.45461H5.45447H5.45433H5.45423H5.45405H5.45379H5.45377H5.45375H5.45348H5.45325H5.4532H5.45312H5.45291H5.45274H5.45262H5.45247H5.45233H5.45222H5.45204H5.45184H5.45175H5.45168H5.45146H5.45121H5.45117H5.45113H5.45088H5.45061H5.45059H5.45057H5.45029H5.45001H5.45H5.44999H5.44971H5.44943H5.44941H5.44939H5.44912H5.44887H5.44883H5.44879H5.44854H5.44832H5.44825H5.44816H5.44796H5.44778H5.44767H5.44753H5.44738H5.44726H5.44709H5.44687H5.4468H5.44675H5.44652H5.44625H5.44623H5.44621H5.44595H5.44577H5.44567H5.44553H5.44539H5.4453H5.44511H5.44485H5.44483H5.44457H5.4444H5.4443H5.44412H5.44403H5.44397H5.44376H5.44356H5.4435H5.44339H5.44324H5.44315H5.44298H5.44276H5.44272H5.44265H5.44247H5.44238H5.44222H5.44202H5.44198H5.44189H5.44173H5.44166H5.44149H5.44132H5.44126H5.44112H5.44103H5.44099H5.4408H5.44067H5.44058H5.44037H5.44036H5.44033H5.44014H5.44007H5.43993H5.43979H5.43972H5.43952H5.43932H5.43926H5.43913H5.43901H5.43894H5.43878H5.43876H5.4387H5.43858H5.43855H5.43841H5.43834H5.43824H5.43813H5.43808H5.43794H5.43792H5.43786H5.43777H5.43775H5.43763H5.43758H5.43749H5.43742H5.43736H5.43727H5.43723H5.43713H5.43711H5.43701H5.43699H5.43689H5.43687H5.43679H5.43676H5.43669H5.43666H5.43661H5.43656H5.43653H5.43648H5.43645H5.43641H5.43639H5.43634H5.43633H5.43629H5.43628H5.43624H5.4362H5.43617H5.43615H5.43614H5.43525H5.43434H5.43342H5.43249H5.43153H5.43056H5.42957H5.42857H5.42754H5.4265H5.42544H5.42437H5.42327H5.42216H5.42103H5.41988H5.41871H5.41753H5.41633H5.4151H5.41386H5.4126H5.41132H5.41002H5.4087H5.40737H5.40601H5.40463H5.40324H5.40182H5.40038H5.39893H5.39745H5.39595H5.39444H5.3929H5.39134H5.38976H5.38816H5.38654H5.38489H5.38323H5.38155H5.37984H5.37811H5.37636H5.37459H5.37279H5.37098H5.36914H5.36728H5.3654H5.36349H5.36156H5.35961H5.35764H5.35564H5.35362H5.35158H5.34951H5.34742H5.34531H5.34317H5.34101H5.33882H5.33661H5.33438H5.33212H5.32984H5.32754H5.3252H5.32285H5.32047H5.31806H5.31563H5.31317H5.31069H5.30819H5.30565H5.30309H5.30051H5.2979H5.29526H5.2926H5.28991H5.2872H5.28446H5.28169H5.27889H5.27607H5.27322H5.27035H5.26745H5.26452H5.26156H5.25857H5.25556H5.25252H5.24945H5.24636H5.24323H5.24008H5.2369H5.23369H5.23045H5.22718H5.22389H5.22056H5.21721H5.21383H5.21041H5.20697H5.2035H5.2C5.20001 14.5001 5.19815 14.5001 5.19402 14.4999L5.17771 14.4992C5.16381 14.4985 5.14572 14.4974 5.12325 14.4956C5.0783 14.4921 5.01987 14.4866 4.94918 14.4788C4.80793 14.4633 4.62308 14.4393 4.4078 14.406C3.97663 14.3391 3.43124 14.236 2.87621 14.0912C2.38931 13.9642 1.9071 13.8082 1.49202 13.6224C3.21602 13.524 4.52467 12.9915 5.33218 12.2738L6.00177 11.6786L5.14367 11.4211C5.00437 11.3794 4.85282 11.342 4.7067 11.3062L4.68784 11.3016C4.54409 11.2664 4.40115 11.2314 4.25521 11.1905C3.95092 11.1052 3.65678 11.0004 3.39101 10.8441C3.01204 10.6212 2.65356 10.2732 2.44519 9.63721C2.64757 9.64895 2.87716 9.63697 3.17071 9.59503L4.54039 9.39936L3.36205 8.67423C3.33607 8.65824 3.31019 8.64233 3.28443 8.62649C2.64571 8.2338 2.07472 7.88274 1.6523 7.39697C1.36701 7.06888 1.14453 6.67136 1.04771 6.1388C1.04794 6.13887 1.04817 6.13895 1.0484 6.13902C1.34663 6.23391 1.67711 6.30006 1.9 6.30006L2.02127 5.31498C2.02577 5.31611 2.02803 5.31689 2.02809 5.31676C2.02831 5.31623 1.99501 5.30175 1.93097 5.23942C1.85704 5.16745 1.76869 5.05745 1.67426 4.90799C1.48578 4.60968 1.30061 4.19802 1.16803 3.7369C0.968171 3.04172 0.912463 2.32868 1.05999 1.75599C2.87742 3.4892 5.02031 5.00751 8.47227 5.19929L8.95788 5.22626L8.99827 4.74158C9.09354 3.59835 9.37598 2.71473 9.82532 2.05715C10.2678 1.40964 10.8937 0.949169 11.7422 0.679494C13.3209 0.244607 14.4995 0.950716 14.984 1.67741L15.1864 1.98108L15.5374 1.88082C15.903 1.77636 16.2657 1.64681 16.6107 1.5236L16.6182 1.52093Z" fill="#83B3D3" stroke="black"/>
</svg>
