<svg width="458" height="352" viewBox="0 0 458 352" fill="none" xmlns="http://www.w3.org/2000/svg">
<path d="M152.3 56.1L149.5 61H146.8L145.9 62.4H148.7L142.6 72.8C141.3 75 142.2 77 144.7 77C146.5 77 148.4 75.7 150.3 73.9C150.3 77.7 155.6 78.4 158.9 74.4H159.6C161.4 74.4 164.2 73.3 165.8 71.5C165.6 71.1 165.1 70.6 164.7 70.5L164.5 70.7C163.1 72.2 161.5 72.9 159.9 72.9L162.7 68.1C164.5 65 162.8 62 160 62C157.7 62 155.9 62.9 154.1 65.9L152.6 68.5L151.4 70.6L151.2 70.8C149 73.3 146.9 75.3 145.6 75.3C144.9 75.3 144.6 74.8 145.3 73.7L151.8 62.5H154.3L155 61H152.5L155.3 56.1H152.3ZM159.8 63.9C160.8 64 161.2 65.2 160.2 66.9L158 70.6H157.9C156.9 70.6 156.1 71.4 156.1 72.4C156.1 72.8 156.2 73.1 156.4 73.4V73.5C155 75.9 151.5 75.5 153.3 72.4L155.6 68.5L157.1 66.1C158 64.5 159.1 63.9 159.8 63.9ZM181.8 56.1L179 61H176.3L175.4 62.4H178.2L172 72.8C170.7 75 171.6 77 174.1 77C175.3 77 176.6 76.4 178 75.4L177.2 76.7H180.2L184.8 68.8C189.4 63 191.5 63.8 190.2 66L186.3 72.7C185 74.9 185.9 76.9 188.4 76.9C190.2 76.9 192.2 75.5 194.1 73.7C194.2 75.6 195.8 76.9 198.2 76.9C201.6 76.9 205 74.3 207.5 71.4C207.3 71 206.8 70.5 206.4 70.4L206.2 70.6C204 73.1 201.2 75.1 199.1 75.1C197.2 75.1 196.1 74 197.5 71.5L197.8 71C199.7 71.8 203.4 71.4 205.7 67.6L206.1 66.9C207.7 64.1 206.2 62.1 203.7 62.1C201.3 62.1 199.3 63.4 198 65.5L195.1 70.5L194.9 70.7C192.7 73.2 190.6 75.2 189.3 75.2C188.6 75.2 188.3 74.7 188.9 73.6L193.3 66.1C194.6 63.8 193.4 62.2 191.7 62.2C190.4 62.2 189 62.9 187.5 64.5L192.3 56.2H189.3L180.9 70.6L180.7 70.8C178.5 73.3 176.4 75.3 175.1 75.3C174.4 75.3 174.1 74.8 174.8 73.7L181.3 62.5H183.8L184.7 61.1H182.2L185 56.2L181.8 56.1ZM203.1 64.3C204.1 64.2 204.6 65.2 203.6 66.9L203.2 67.6C201.8 70 199.8 70 198.7 69.6L200.6 66.2C201.3 65 202.3 64.4 203.1 64.3ZM247.4 58.9C245.7 60.4 245.5 62.1 246.6 63.5L246.9 63.8C245.6 65.7 243.8 68.2 241.8 70.5L241.6 70.7C240.2 72.2 238.6 72.9 237 72.9L239.8 68.1C241.6 65 239.9 62 237.1 62C234.8 62 233 62.9 231.2 65.9L229.7 68.5L228.5 70.6L228.3 70.8C225.8 73.6 223.7 75.5 221.3 76.5L228.1 65.1H226.3C226.3 63.9 225 62.2 223.1 62.2C221.5 62.2 219.2 63.5 217.9 65.6L213.7 72.8C212.4 75 213.3 77 215.8 77C216.6 77 217.7 76.6 218.7 76L217.9 77.4C213.8 78.6 211.3 80.3 211.3 82.5C211.3 85.4 215.7 86 217.9 82.3L220.2 78.4C222.6 77.7 225 76.3 227.4 73.9C227.4 77.7 232.7 78.5 236 74.4H236.7C238.5 74.4 241.3 73.3 242.9 71.5C244.3 69.8 245.5 68.3 247.9 65.1L248.3 65.6C248.7 66.1 248.8 66.7 248.5 67.3L245.3 72.8C244 75 244.9 77 247.4 77C248.9 77 250.6 76 252.2 74.6C252.1 76 253.1 77 254.8 77C255.6 77 256.7 76.6 257.7 76L256.9 77.4C252.8 78.6 250.3 80.3 250.3 82.5C250.3 85.4 254.7 86 256.9 82.3L259.2 78.4C261.7 77.6 264.1 76.2 266.6 73.8C266.7 75.7 268.3 77 270.7 77C273.2 77 275.6 75.6 277.7 73.8C277.6 77.7 283 78.5 286.3 74.4H287C287.9 74.4 289.2 74.1 290.4 73.5C289.6 75.6 290.3 77 292.1 77C293.8 77 295.6 75.5 297.1 74.1C296.8 75.7 297.8 77 299.7 77C302.2 77 305.1 74.4 307.6 71.5C309.3 69.5 310.8 67.5 311.9 66.1C310.7 69.2 311.3 74.8 308.5 74.8C307.5 74.8 307.1 73.7 307.1 73.7L305.2 74.7C305.2 74.7 305.8 77.1 308.5 77.1C308.8 77.1 309.1 77.1 309.3 77H309.4C312.5 76.6 315.5 74.2 317.8 71.6C317.6 71.1 317.1 70.7 316.7 70.6L316.5 70.8C315.4 72 314.2 73.1 312.9 74C313.9 71.2 313.7 66.8 315.5 63L313.2 61.8C312 63.5 309.2 67.4 306.5 70.5L306.3 70.7C304.1 73.2 302 75.2 300.7 75.2C300 75.2 299.7 74.7 300.4 73.6L306.8 62.4H303.8L298.4 71.7C296.1 73.8 294.3 74.9 293.8 74.7C293 74.4 293.8 73.3 294.2 72.6L300.1 62.4H297.1L292.4 70.5L292.2 70.7C290.8 72.2 289.2 72.9 287.6 72.9L290.4 68.1C292.2 65 290.5 62 287.7 62C285.4 62 283.6 62.9 281.8 65.9L280.3 68.5L279.1 70.6L278.9 70.8C276.7 73.3 273.9 75.3 271.8 75.3C269.9 75.3 268.8 74.2 270.2 71.7L270.5 71.2C272.4 72 276.1 71.6 278.4 67.8L278.8 67.1C280.4 64.3 278.9 62.3 276.4 62.3C274 62.3 272 63.6 270.7 65.7L267.8 70.7L267.6 70.9C265.1 73.7 263 75.6 260.6 76.6L267.4 65.2H265.6C265.6 64 264.3 62.3 262.4 62.3C260.8 62.3 258.5 63.6 257.2 65.7L254.3 70.6L254.1 70.8C251.9 73.3 249.8 75.3 248.5 75.3C247.8 75.3 247.5 74.8 248.2 73.7L251.2 68.5C252.2 66.7 251.8 65.6 250.8 64.5L249.1 62.5C248.7 62 248.7 61.4 249.3 60.8L247.4 58.9ZM237.1 63.9C238.1 64 238.6 65.2 237.5 66.9L235.3 70.6H235.2C234.2 70.6 233.4 71.4 233.4 72.4C233.4 72.8 233.5 73.1 233.7 73.4V73.5C232.3 75.9 228.8 75.5 230.6 72.4L232.9 68.5L234.4 66.1C235.3 64.5 236.3 63.9 237.1 63.9ZM287.3 63.9C288.3 64 288.8 65.2 287.7 66.9L285.5 70.6H285.4C284.4 70.6 283.6 71.4 283.6 72.4C283.6 72.8 283.7 73.1 283.9 73.4V73.5C282.5 75.9 279 75.5 280.8 72.4L283.1 68.5L284.6 66.1C285.4 64.5 286.5 63.9 287.3 63.9ZM275.6 64.3C276.6 64.2 277.1 65.2 276.1 66.9L275.7 67.6C274.2 70 272.3 70 271.2 69.6L273.1 66.2C273.8 65 274.8 64.4 275.6 64.3ZM223.2 64.5C224.2 64.5 224.9 65.4 224 66.9L221.7 70.9C219.9 73.8 218 75.2 216.8 75.2C216.1 75.2 215.8 74.7 216.5 73.6L220.7 66.3C221.4 65.1 222.4 64.5 223.2 64.5ZM262.1 64.5C263.1 64.5 263.8 65.4 262.9 66.9L260.6 70.9C258.8 73.8 256.9 75.2 255.7 75.2C255 75.2 254.7 74.7 255.4 73.6L259.6 66.3C260.3 65.1 261.3 64.5 262.1 64.5ZM216.8 79.4L215.4 81.8C214.8 82.9 213.7 82.7 213.7 81.9C213.7 81.2 214.5 80.3 216.8 79.4ZM255.7 79.4L254.3 81.8C253.7 82.9 252.6 82.7 252.6 81.9C252.7 81.2 253.4 80.3 255.7 79.4ZM101 67.8H129.9V69.7H101V67.8ZM328.1 67.8H357V69.7H328.1V67.8Z" fill="#766458"/>
<path d="M322.7 37.4V45.1H301.9V0.400002H322.7V8H309.5V18.8H320V26.5H309.5V37.4H322.7ZM289.9 0.400002H297.5V45.1H289.9V23.1L286.9 34.5H279.5L276.5 23.1V45.1H268.9V0.400002H276.5L283.3 22L289.9 0.400002ZM258 8H252.5V37.3H258V8ZM261 0.400002C263.5 0.400002 265.7 2.5 265.7 5.1V40.4C265.7 43 263.5 45.1 261 45.1H249.6C247 45.1 244.9 42.9 244.9 40.4V5.1C244.9 2.5 247 0.400002 249.6 0.400002H261ZM233 28.6L240.7 26.8V40.4C240.7 43 238.5 45.1 236 45.1H224.6C222 45.1 219.9 42.9 219.9 40.4V5.1C219.9 2.5 222 0.400002 224.6 0.400002H236C238.5 0.400002 240.7 2.5 240.7 5.1V14.2L233 16V8H227.5V37.3H233V28.6ZM216.2 37.4V45.1H198V0.400002H205.6V37.4H216.2ZM194.8 37.4V45.1H174V0.400002H194.8V8H181.6V18.8H192.1V26.5H181.6V37.4H194.8ZM162.6 0.400002H170.3L169 45.1H154.5L152.5 26.6L150.5 45.1H136L135 0.400002H142.6L143.2 37.4H144L148.8 0.400002H156.4L161.3 37.4H162.1L162.6 0.400002Z" fill="#81B3D3"/>
<path d="M380.7 213.9L406.1 139.9H431.3L457 213.9H436.8L433.1 200.5H404.5L400.7 213.9H380.7ZM416.4 161.8L408.9 186.3H429L421.5 161.8C421.1 160.6 420.7 159.4 420.3 158.2C420 156.9 419.7 155.7 419.5 154.4C419.3 153.9 419.2 153.5 419.2 153.1C419.1 152.6 419 152.2 419 151.8C418.9 152.2 418.8 152.6 418.7 153.1C418.6 153.5 418.5 153.9 418.5 154.4C418.4 154.6 418.4 154.7 418.4 154.9C418.4 155 418.4 155.1 418.3 155.2C418.1 156.3 417.8 157.5 417.5 158.6C417 159.6 416.7 160.7 416.4 161.8ZM298.7 213.9V139.9H318.2L346.1 177.9C346.8 179 347.5 180.2 348.1 181.4C348.8 182.6 349.5 183.8 350.1 185L351.5 188C352 189 352.4 190 352.9 190.9C352.8 190.1 352.7 189.3 352.6 188.5C352.5 187.7 352.4 186.9 352.4 186.1C352.2 184.5 352.1 182.9 352.1 181.3C352 179.6 352 178 352 176.3V140H371.4V214H352L323.9 175.8C323.1 174.9 322.4 173.8 321.7 172.5C321 171.2 320.3 169.8 319.7 168.4C319.3 167.4 318.8 166.5 318.3 165.5C317.9 164.6 317.6 163.6 317.1 162.7C317.5 165.1 317.8 167.5 318 170C318.2 172.5 318.3 175 318.3 177.4V213.9H298.7ZM210.7 159C214.3 152.4 219.2 147.4 225.6 143.9C232 140.4 238.6 138.7 245.5 138.7C246.4 138.7 247.4 138.7 248.3 138.8C249.3 138.9 250.3 139 251.2 139C254.1 139.4 256.9 140.1 259.7 141.1C262.6 142.1 265.3 143.4 267.8 145C273.3 148.6 277.6 153.3 280.6 159.3C283.6 165.2 285.1 171.3 285.1 177.8C285.1 178.6 285.1 179.4 285 180.2C285 181 284.9 181.7 284.8 182.5C284.6 184.2 284.3 185.8 283.9 187.4C283.5 189 283 190.5 282.4 192C279.1 199.5 274.1 205.4 267.2 209.5C260.3 213.6 253.1 215.7 245.5 215.7C245 215.7 244.4 215.7 243.9 215.6H242.4C239.7 215.4 237.1 214.9 234.5 214.2C231.9 213.5 229.4 212.5 227.1 211.3C220.6 207.9 215.5 203.1 211.8 196.8C208.1 190.5 206.2 183.9 206.2 177.1C206.2 176.1 206.2 175.1 206.3 174.1C206.4 173.1 206.5 172 206.8 171C207.2 169 207.7 166.9 208.4 165C208.8 162.8 209.7 160.9 210.7 159ZM263.5 185.6C263.7 184.8 263.9 184 264.1 183.2C264.3 182.3 264.5 181.5 264.6 180.6C264.7 180.1 264.7 179.5 264.7 179C264.8 178.5 264.8 178 264.8 177.5C264.8 177 264.8 176.6 264.7 176.1V174.7C264.3 171.4 263.3 168.2 261.7 165.1C260.1 162 257.8 159.6 255 157.9C254.2 157.5 253.5 157.2 252.7 156.9C251.9 156.6 251.2 156.3 250.4 156.1C249.6 155.9 248.9 155.8 248.1 155.8C247.3 155.6 246.6 155.6 245.8 155.6C241.9 155.6 238.2 156.8 234.9 159.3C231.6 161.8 229.2 165.1 227.9 169.2L227.7 169.7V170.2C227.5 170.9 227.3 171.7 227.1 172.4C226.9 173.1 226.8 173.8 226.6 174.6L226.4 176.2V178.6C226.4 178.8 226.4 179.1 226.5 179.4C226.7 183.5 228 187.4 230.2 191.1C232.5 194.7 235.7 197.1 239.7 198.3L241.1 198.8C241.6 198.9 242.1 199 242.6 199L244 199.2H245.4C249.5 199.2 253.2 198 256.4 195.6C259.7 193 262.1 189.7 263.5 185.6ZM181.4 207C177.8 209.5 173.8 211.2 169.6 212.1C165.4 213 161 213.6 156.7 213.8C155.5 213.9 154.2 213.9 153 213.9H129.2V139.9H154.3C155.5 139.9 156.7 139.9 157.9 140C162.1 140.2 166.2 140.8 170.2 141.7C174.3 142.6 178.1 144.4 181.5 146.8C185.8 149.8 189.2 153.8 191.6 158.8C194 163.8 195.4 168.9 195.7 174.1C195.8 174.6 195.8 175 195.8 175.5V178.4C195.6 183.9 194.3 189.2 191.9 194.3C189.5 199.4 185.9 203.7 181.4 207ZM149 197.3C149.2 197.3 149.5 197.3 149.7 197.4H150.5C150.8 197.4 151.1 197.4 151.3 197.5H154.4C155.3 197.4 156.1 197.3 156.8 197.3C158.8 197.1 160.8 196.8 162.7 196.3C164.6 195.8 166.4 194.9 167.9 193.9C170.4 192.1 172.2 189.7 173.4 186.7C174.6 183.6 175.3 180.4 175.3 177.1V176.2C175.3 175.9 175.3 175.6 175.2 175.3C175 172.4 174.3 169.5 173.1 166.8C171.9 164 170.2 161.8 168 160.2C166.4 158.9 164.5 158 162.5 157.5C160.5 157 158.5 156.8 156.5 156.7H149V197.3ZM69.1 213.9V139.9H114.5V156H88.9V169H112.9V184.8H88.9V197.3H114.4V213.9H69.1ZM9.70005 190.1C9.80005 190.2 9.80005 190.3 9.80005 190.3C9.90005 190.3 10 190.3 10 190.4C12.1 192.7 14.5 194.9 17.1 196.9C19.7001 198.8 22.8001 199.9 26.2001 200C26.3001 200 26.4 200 26.4 200.1H26.7001C26.8001 200.1 26.9 200.1 26.9 200.2H28.2001C28.6 200.1 28.9001 200 29.2001 200C30.4001 199.8 31.6 199.3 32.7001 198.6C33.9001 197.9 34.8001 197.1 35.4001 196L35.6 195.5L35.8 195C36 194.5 36.1 194 36.1 193.5C36.2 193 36.2001 192.6 36.2001 192.2C36.2001 190.1 35.3001 188.4 33.4001 187C31.7001 185.6 29.7001 184.4 27.6 183.6C26.8001 183.3 26 183.1 25.2001 182.9C24.5 182.7 23.7001 182.5 23 182.3H22.8C22.7 182.2 22.6 182.2 22.6 182.2C18.8001 181.3 15.2 179.8 11.9 177.8C8.60005 175.7 6.30005 172.7 5.00005 168.9C4.80005 168.1 4.50005 167.3 4.30005 166.5C4.10005 165.6 4.00005 164.7 4.00005 163.8C4.00005 163.7 4.00005 163.4 4.00005 163.2V160.4C4.10005 159.8 4.20005 159.2 4.30005 158.5C4.50005 156.9 4.90005 155.4 5.50005 153.9C6.00005 152.4 6.70005 151 7.60005 149.7C10.1 145.6 13.3 142.7 17.1 140.9C21 139.1 25.2001 138.2 29.4 138.2C30.4 138.2 31.4001 138.3 32.4001 138.4C33.5 138.5 34.6001 138.6 35.7001 138.7C38.5 139.2 41.3001 140 43.9001 141C46.7001 142.1 49.2 143.4 51.6 144.8L45.2001 159.1C43.1001 157.6 40.9 156.2 38.6 155C36.3 153.8 33.8 153.3 31.1 153.3H30.2001C28.4001 153.5 26.8001 154.3 25.2001 155.7C23.7001 157 22.9 158.4 22.9 160V160.7C23 160.9 23.1 161.2 23.2001 161.4C23.4001 161.9 23.6 162.4 24 162.9C24.4 163.4 24.8 163.8 25.3 164.2C26.2 164.9 27.4 165.6 29 166.2C30.6 166.7 32.3 167.3 34.1 167.8C35.6 168.2 37 168.6 38.4001 169C39.8001 169.3 41 169.6 41.9001 169.9C46.2001 171.4 49.5 174 51.7001 177.7C53.9001 181.3 55 185.1 55.1 189.1V189.7C55.1 190.2 55.1 190.6 55 191.1V192.4C54.5 196.4 53.2 200.3 51.1 203.9C49 207.5 46.2 210.3 42.6 212.3C41.3 212.9 39.9001 213.5 38.5 213.9C37.1 214.3 35.7001 214.6 34.3 214.9C33.2001 215.1 32 215.3 30.8 215.4C29.7 215.6 28.6 215.6 27.4 215.6H26C21.4 215.4 16.8 214.4 12.3 212.6C7.80005 210.7 3.80005 208.1 0.300049 204.9L9.70005 190.1ZM351.3 337.2C351.3 336.9 351.4 336.6 351.5 336.3C351.6 336 351.8 335.7 352 335.5C352.2 335.3 352.5 335.1 352.8 334.9C353.1 334.8 353.5 334.7 353.9 334.7C354.4 334.7 354.8 334.8 355.2 335C355.6 335.2 356 335.4 356.3 335.7C356.5 336 356.7 336.3 356.9 336.7C357 337.1 357.1 337.5 357.1 338C357.1 338.9 356.9 339.6 356.6 340.4C356.3 341.1 355.9 341.8 355.3 342.3C355 342.6 354.8 342.8 354.5 343C354.2 343.2 353.9 343.4 353.6 343.5C353.3 343.6 353.1 343.8 352.9 343.9C352.8 344 352.7 344 352.5 344.1L351.1 342.1C351.3 342 351.6 341.9 351.9 341.7C352.2 341.6 352.5 341.4 352.8 341.2C353.1 341 353.3 340.7 353.5 340.4C353.7 340.1 353.8 339.8 353.8 339.4C353.2 339.4 352.6 339.2 352.1 338.8C351.5 338.5 351.3 338 351.3 337.2ZM359.1 337.2C359.1 336.9 359.2 336.6 359.3 336.3C359.4 336 359.6 335.7 359.8 335.5C360 335.3 360.3 335.1 360.6 334.9C360.9 334.8 361.3 334.7 361.7 334.7C362.2 334.7 362.6 334.8 363 335C363.4 335.2 363.8 335.4 364.1 335.7C364.3 336 364.5 336.3 364.7 336.7C364.8 337.1 364.9 337.5 364.9 338C364.9 338.8 364.8 339.6 364.4 340.4C364.1 341.1 363.7 341.8 363.1 342.3C362.8 342.6 362.6 342.8 362.3 343C362 343.2 361.7 343.4 361.4 343.5C361.1 343.6 360.9 343.8 360.7 343.9C360.6 344 360.5 344 360.3 344.1L359 342.1C359.2 342 359.5 341.9 359.8 341.7C360.1 341.6 360.4 341.4 360.7 341.2C361 341 361.2 340.7 361.4 340.4C361.6 340.1 361.7 339.8 361.7 339.4C361.1 339.4 360.5 339.2 360 338.8C359.3 338.5 359.1 338 359.1 337.2ZM94.5 278.5C94.5 278.8 94.4 279.1 94.3 279.4C94.2001 279.7 94 280 93.8 280.2C93.3 280.7 92.6 281 91.9 281C91.5 281 91 280.9 90.6 280.7C90.2 280.5 89.8 280.3 89.5 280C89.2 279.7 89 279.3 88.9 279C88.8 278.6 88.7 278.2 88.7 277.7C88.7 276.8 88.9 276.1 89.2 275.3C89.5 274.6 89.9 273.9 90.5 273.4C90.8 273.1 91 272.9 91.3 272.7C91.6001 272.5 91.9 272.3 92.2 272.2C92.5 272.1 92.7001 271.9 92.9 271.8C93.1 271.7 93.2001 271.7 93.3 271.6L94.6 273.6C94.3 273.7 94 273.8 93.8 274C93.5 274.1 93.2001 274.3 92.9 274.5C92.6 274.7 92.4 275 92.2 275.3C92 275.6 91.9 275.9 91.9 276.3C92.6 276.3 93.1 276.5 93.6 276.9C94.3 277.3 94.5 277.8 94.5 278.5ZM86.7 278.5C86.7 279.1 86.5 279.7 86 280.2C85.8 280.4 85.5 280.6 85.2 280.8C84.9 280.9 84.5 281 84.1 281C83.7 281 83.2001 280.9 82.8 280.7C82.4 280.5 82 280.3 81.7 280C81.4 279.7 81.2 279.3 81.1 279C81 278.6 80.9 278.2 80.9 277.7C80.9 276.8 81.1 276.1 81.4 275.3C81.7001 274.6 82.1 273.9 82.7 273.4C82.9 273.2 83.2 272.9 83.5 272.7C83.8 272.5 84.1 272.3 84.4 272.2C84.7001 272.1 84.9 271.9 85.1 271.8C85.3 271.7 85.4 271.7 85.5 271.6L86.8 273.6C86.6001 273.7 86.3 273.8 86 274C85.7 274.1 85.4 274.3 85.1 274.5C84.8 274.7 84.6 275 84.4 275.3C84.2001 275.6 84.1 275.9 84.1 276.3C84.8 276.3 85.3 276.5 85.8 276.9C86.4 277.3 86.7 277.8 86.7 278.5ZM332 335.4H335.8L347.6 314.8H343.8L332 335.4ZM331.9 336.9C330.7 336.9 329.7 337.9 329.7 339.1C329.7 340.3 330.6 341.3 331.9 341.3C333.1 341.3 334.1 340.4 334.1 339.1C334.1 337.8 333.1 336.9 331.9 336.9ZM305.5 331.4L306.6 329.5C311 323.4 313.9 325.1 312.6 327.4L310.8 330.5C309.7 332.4 306.3 333.8 305.5 331.4ZM330.6 334.3C330.4 333.7 329.7 333.1 329.2 333L328.9 333.3C327.6 334.9 326 336.2 324.4 337.4C325.6 333.8 325.3 328.3 327.7 323.4L324.9 321.9C323.3 324 319.9 329 316.5 333L316.2 333.3C313.5 336.5 310.8 339 309.2 339C308.4 339 307.6 338.2 307.6 336.5V334.9C310.3 335.2 313.1 333.5 314.8 330.4L315.8 328.7C319.3 322.7 313.6 320.7 309.7 324.2L315.1 314.9H311.3L300.5 333.6C300.3 333.4 300.1 333.3 299.8 333.1L299.5 333.4C296.8 336.6 293.3 339.1 290.6 339.1C288.3 339.1 286.9 337.6 288.6 334.6L292.5 327.8C294.7 324.1 298.5 324.7 296.3 328.6L295.8 329.5H298.9L299.4 328.6C301.4 325.1 299.5 322.5 296.4 322.5C293.3 322.5 290.9 324.1 289.3 326.9L285.6 333.3C285.5 333.3 285.4 333.2 285.4 333.2L285.1 333.5C282.4 336.7 279.7 339.2 278.1 339.2C277.3 339.2 276.8 338.6 277.7 337.1L285.8 323H282L275.3 334.7C272.4 337.3 270.2 338.8 269.5 338.4C268.6 338 269.5 336.6 270 335.8L277.4 322.9H273.6L266.3 335.6C265.5 336.3 263.9 337 263.1 337.5C264.3 333.9 264 328.4 266.4 323.5L263.6 322C262 324.1 253.3 335.7 249.9 339.7C250.2 340.2 250.8 340.6 251.3 341C253.4 338.5 260.6 329.3 262 327.5C260.5 331.4 261.3 338.5 257.7 338.5C256.4 338.5 255.9 337.1 255.9 337.1L253.5 338.3C253.5 338.3 254.2 341.3 257.6 341.3C258 341.3 258.3 341.3 258.7 341.2H258.8C260.7 340.9 263.4 340.1 265.2 338.8C265.2 340.3 266.1 341.3 267.7 341.3C269.8 341.3 272.1 339.4 273.9 337.7C273.5 339.7 274.7 341.3 277.1 341.3C279.4 341.3 282.1 339.4 284.5 336.9C284.5 339.4 286.5 341.3 289.6 341.3C292.7 341.3 295.7 339.6 298.3 337.3L296.2 341H300L304.3 333.5V336.5C304.3 339.7 304.9 341.4 308 341.4C311.1 341.4 314.7 338.1 317.8 334.4C319.9 331.9 321.8 329.3 323.2 327.5C321.7 331.4 322.5 338.5 318.9 338.5C317.6 338.5 317.1 337.1 317.1 337.1L314.7 338.3C314.7 338.3 315.4 341.3 318.8 341.3C319.2 341.3 319.5 341.3 319.9 341.2H320C324 340.7 327.8 337.6 330.6 334.3ZM216 333.2H215.8C214.6 333.2 213.6 334.2 213.6 335.5C213.6 336 213.7 336.4 214 336.8V336.9C212.2 339.9 207.9 339.4 210.1 335.4L213 330.4L214.8 327.3C217.5 322.8 221.1 324.6 218.8 328.5L216 333.2ZM190.6 347.4C189.8 348.8 188.5 348.6 188.5 347.6C188.5 346.6 189.4 345.5 192.3 344.4L190.6 347.4ZM161.8 333.6C159.5 337.2 157.3 338.9 155.7 338.9C154.9 338.9 154.4 338.3 155.3 336.8L160.6 327.6C162.6 324.1 166.7 325 164.8 328.4L161.8 333.6ZM149.8 318.9C150.9 317 152.2 316.1 153.2 316.1C154.6 316.1 155.3 317 155.3 318.4C155.3 321.9 150.9 329.2 145.1 328.3H144.3L149.8 318.9ZM242.6 333L242.3 333.3C239.6 336.5 236.9 339 235.3 339C234.5 339 234 338.4 234.9 336.9L240.3 327.3C241.9 324.4 240.4 322.4 238.3 322.4C236.7 322.4 235 323.3 233.1 325.2L234.5 322.7H230.7L224.6 333.2C224.4 333.1 224.3 333 224.1 332.9L223.8 333.2C222.1 335.1 220 336 218.1 336L221.7 329.9C224 325.9 221.9 322.2 218.3 322.2C215.4 322.2 213.1 323.4 211 327.1L209.1 330.3L207.5 333.1C207.4 333 207.3 333 207.2 332.9L206.9 333.2C203.8 336.8 201.1 339.1 198.1 340.4L208.5 322.7H204.7L198 334.3C195.1 337 192.8 338.5 192.1 338.2C191.2 337.8 192.1 336.4 192.6 335.6L200 322.7H196.2L190.2 333.1C190.1 333 190 333 189.9 332.9L189.6 333.2C186.9 336.4 184.2 338.9 182.6 338.9C181.8 338.9 181.3 338.3 182.2 336.8L187.6 327.2C189.2 324.3 187.7 322.3 185.6 322.3C184 322.3 182.3 323.2 180.4 325.1L181.8 322.6H178L172 333C171.9 332.9 171.8 332.9 171.6 332.8L171.3 333.1C168.6 336.3 165.9 338.8 164.3 338.8C163.5 338.8 163 338.2 163.9 336.7L170 326H167.9C168 324.4 166.4 322.2 163.9 322.2C161.9 322.2 159 323.8 157.4 326.6L153.5 333.3C153.2 333.1 152.9 332.9 152.7 332.8L152.4 333.1C149.7 336.3 147.6 338.8 143.8 338.8C141.2 338.8 139.7 336.2 141.9 332.4L143 330.5C143.7 330.6 144.4 330.7 145.1 330.7C149.1 330.7 153.7 328.6 156.7 323.4C157.8 321.5 158.2 319.8 158.2 318.3C158.2 314.9 156 312.7 153.2 312.7C151.1 312.7 148.7 314.2 147 317.1L141.1 327.2C138.9 326 137.7 323.9 137.7 321.8C137.7 320.1 138.5 318.3 140.1 317L138.9 314.8C136.2 316.7 135 319.3 135 321.8C135 324.8 136.7 327.7 139.8 329.3L138.7 331.3C136 335.9 137.6 341 142.9 341C147.1 341 149 339.1 151.6 336.6C150.8 339 152 341 154.6 341C156.1 341 158 340 159.8 338.5C160 340 161.1 341 163.1 341C164.9 341 166.9 339.9 168.8 338.2L167.4 340.6H171.2L177 330.5C182.8 323.3 185.4 324.2 183.7 327L178.8 335.5C177.2 338.3 178.3 340.9 181.4 340.9C183.4 340.9 185.7 339.5 187.8 337.5C187.3 339.6 188.3 340.9 190.2 340.9C192 340.9 194.1 339.4 195.8 337.9L193.7 341.5C188.6 343 185.4 345.1 185.4 348C185.4 351.6 191 352.4 193.7 347.7L196.6 342.7C199.8 341.7 202.9 339.7 206.1 336.5C205.6 341.8 212.6 343 216.8 337.6H217.6C219 337.6 220.8 337.1 222.5 336.1L220 340.5H223.8L229.6 330.4C235.4 323.2 238 324.1 236.3 326.9L231.4 335.4C229.8 338.2 230.9 340.8 234 340.8C237.1 340.8 240.7 337.5 243.8 333.8C243.7 333.8 243.1 333.2 242.6 333ZM361.2 297.4C358.9 301.1 356.6 302.9 355 302.9C354.2 302.9 353.7 302.3 354.6 300.8L359.9 291.6C361.9 288.1 366 289 364.1 292.4L361.2 297.4ZM325 297.6C322.7 301.2 320.5 302.9 318.9 302.9C318.1 302.9 317.6 302.3 318.5 300.8L323.8 291.6C325.8 288.1 329.9 289 328 292.4L325 297.6ZM285.1 311.4C284.3 312.8 283 312.6 283 311.6C283 310.6 283.9 309.5 286.8 308.4L285.1 311.4ZM293.1 282.9C294.2 281 295.5 280.1 296.5 280.1C302.5 280.1 298 294.5 288.4 292.3H287.6L293.1 282.9ZM370.8 297L370.5 297.3C367.8 300.5 365.1 303 363.5 303C362.7 303 362.2 302.4 363.1 300.9L375.9 278.8H372.1L366.5 288.4C365.8 287.3 364.6 286.4 363 286.4C361 286.4 358.1 288 356.5 290.8L352.8 297.2C352.7 297.2 352.6 297.1 352.6 297.1L352.3 297.4C349.6 300.6 347.3 303.1 345.6 303.1C344.8 303.1 344.3 302.5 345.2 301L350.7 291.4C352.3 288.5 350.8 286.5 348.7 286.5C347.1 286.5 345.4 287.4 343.5 289.3L344.9 286.8H341.1L335.1 297.2C335 297.1 334.9 297.1 334.7 297L334.4 297.3C331.7 300.5 329 303 327.4 303C326.6 303 326.1 302.4 327 300.9L333.1 290.2H331C331.1 288.6 329.5 286.4 327 286.4C325 286.4 322.1 288 320.5 290.8L316.8 297.1L316.6 297.3C313.9 300.5 310.8 303 309.2 303C308.4 303 307.9 302.4 308.8 300.9L312.6 294.3C313.9 292 313.3 290.7 312.1 289.2L310 286.7C309.5 286 309.5 285.2 310.2 284.5L308.2 282.4C306.1 284.3 305.9 286.5 307.2 288.2L307.5 288.6C305.8 291 303.6 294.2 301.1 297.1C301.2 297.2 301.3 297.3 301.4 297.4C298.3 301 295.6 303.3 292.7 304.6L297.5 296.4H293.7L293.3 297.1C291.3 300.6 289 303.1 286.1 303.1C283.5 303.1 283.1 300.5 285.3 296.7L286.4 294.8C287.1 294.9 287.8 295 288.5 295C301.9 295 308.4 277 296.6 277C294.5 277 292.1 278.5 290.4 281.4L284.5 291.5C282.3 290.3 281.1 288.2 281.1 286.1C281.1 284.4 281.9 282.6 283.5 281.3L282.3 279.1C279.6 281 278.4 283.6 278.4 286.1C278.4 289.1 280.1 292 283.2 293.6L282.1 295.6C279.4 300.2 279.9 305.3 285.3 305.3C286.9 305.3 288.2 304.8 289.4 304.1L288.4 305.8C283.3 307.4 280.1 309.4 280.1 312.3C280.1 315.9 285.7 316.7 288.4 312L291.3 307C295.2 305.8 299.1 303.1 303.2 298.3C303.1 298.2 303.1 298.1 303 297.9C304.7 295.9 306.1 294 309 290.2L309.5 290.8C310 291.4 310.2 292.2 309.7 292.9L305.7 299.8C304.1 302.6 305.2 305.2 308.3 305.2C310.2 305.2 312.6 304 314.7 302.2C314.7 303.9 315.8 305.2 318 305.2C319.5 305.2 321.4 304.2 323.2 302.7C323.4 304.2 324.5 305.2 326.5 305.2C328.3 305.2 330.3 304.1 332.2 302.4L330.8 304.8H334.6L340.4 294.7C346.2 287.5 348.8 288.4 347.1 291.2L342.2 299.7C340.6 302.5 341.7 305.1 344.8 305.1C346.8 305.1 348.6 303.7 350.8 301.8C350.6 303.7 351.8 305.1 354.1 305.1C355.6 305.1 357.5 304.1 359.3 302.6C359.5 304.1 360.6 305.1 362.6 305.1C365.7 305.1 369.3 301.8 372.4 298.1C371.9 297.8 371.3 297.2 370.8 297ZM258.5 291.7C260.7 288 264.5 288.6 262.3 292.5L261.8 293.4C260 296.5 257.5 296.4 256.1 295.9L258.5 291.7ZM255.5 305.3C259.8 305.3 264 302 267.2 298.3C266.9 297.8 266.3 297.2 265.8 297L265.5 297.3C262.8 300.5 259.3 303 256.6 303C254.3 303 252.9 301.5 254.6 298.5L255 297.8C257.4 298.8 262 298.3 264.8 293.4L265.3 292.5C267.3 289 265.4 286.4 262.3 286.4C259.3 286.4 256.8 288 255.2 290.8L251.5 297.1C251.5 297.1 251.4 297.1 251.4 297L251.1 297.3C248.4 300.5 245.7 303 244.1 303C243.3 303 242.8 302.4 243.7 300.9L249.1 291.3C250.7 288.4 249.2 286.4 247.1 286.4C245.5 286.4 243.7 287.3 241.8 289.3L247.8 278.8H244L233.3 297.3C233.2 297.2 233 297.1 232.9 297L232.6 297.3C229.9 300.5 227.2 303 225.6 303C224.8 303 224.3 302.4 225.2 300.9L233.3 286.8H236.4L237.5 285H234.4L238 278.8H234.2L230.6 285H227.2L226.1 286.8H229.5L221.9 300C220.3 302.8 221.4 305.4 224.5 305.4C226.4 305.4 228.4 304.2 230.4 302.4L228.9 305H232.7L238.4 295C244.2 287.7 246.8 288.6 245.2 291.4L240.3 299.9C238.7 302.7 239.8 305.3 242.9 305.3C245.2 305.3 247.7 303.5 250.2 301.1C250.4 303.5 252.4 305.3 255.5 305.3ZM128 291.7C130.2 288 134 288.6 131.8 292.5L131.3 293.4C129.5 296.5 127 296.4 125.6 295.9L128 291.7ZM151.1 300.9L156.4 291.7C158.4 288.2 162.5 289.1 160.6 292.5L157.7 297.7C155.4 301.3 153.2 303 151.6 303C150.7 302.9 150.2 302.4 151.1 300.9ZM205.1 291.7C207.3 288 211.1 288.6 208.9 292.5L208.4 293.4C206.6 296.5 204.2 296.4 202.7 295.9L205.1 291.7ZM147.3 301.2C146.7 303.4 147.9 305.3 150.4 305.3C151.9 305.3 153.8 304.3 155.6 302.8C155.8 304.3 156.9 305.3 158.9 305.3C160.9 305.3 163.1 303.9 165.3 302C164.9 304 165.8 305.3 167.7 305.3C169.8 305.3 172.1 303.4 173.9 301.7C173.5 303.7 174.7 305.3 177.1 305.3C180.2 305.3 183.8 302 186.9 298.3C186.9 298.3 186.8 298.2 186.8 298.1C188.9 295.7 190.7 293.1 192 291.3C190.5 295.2 191.3 302.3 187.7 302.3C186.4 302.3 185.9 300.9 185.9 300.9L183.5 302.1C183.5 302.1 184.2 305.2 187.6 305.2C188 305.2 188.3 305.2 188.7 305.1H188.8C191.6 304.7 194.3 303 196.7 300.9C196.8 303.4 198.7 305.2 201.8 305.2C206.1 305.2 210.3 301.9 213.5 298.2C213.2 297.7 212.6 297.1 212.1 296.9L211.8 297.2C209.1 300.4 205.6 302.9 202.9 302.9C200.6 302.9 199.2 301.4 200.9 298.4L201.3 297.7C203.7 298.7 208.3 298.2 211.1 293.3L211.6 292.4C213.6 288.9 211.7 286.3 208.6 286.3C205.5 286.3 203.1 287.9 201.5 290.7L197.8 297H197.7L197.4 297.3C196.1 298.9 194.5 300.2 192.9 301.4C194.1 297.8 193.8 292.3 196.2 287.4L193.4 285.9C191.8 288 188.4 293 185 297L185.1 297.1L185 297.3C182.3 300.5 179.6 303 178 303C177.2 303 176.7 302.4 177.6 300.9L185.7 286.8H181.9L175.2 298.5C172.3 301.1 170.1 302.6 169.4 302.2C168.5 301.8 169.4 300.4 169.9 299.6L177.3 286.7H173.5L167.5 297.1C167.4 297 167.3 297 167.2 296.9L166.9 297.2C164.2 300.4 161.5 302.9 159.9 302.9C159.1 302.9 158.6 302.3 159.5 300.8L165.6 290.1H163.5C163.6 288.5 162 286.3 159.5 286.3C157.5 286.3 154.6 287.9 153 290.7L149.2 297.3C149 297.2 148.8 297 148.6 296.9L148.3 297.2C145.6 300.4 142.4 302.9 139.8 302.9C137.5 302.9 136.1 301.4 137.8 298.4L141.7 291.6C143.9 287.9 147.7 288.5 145.5 292.4L145 293.3H148.1L148.6 292.4C150.6 288.9 148.7 286.3 145.6 286.3C142.5 286.3 140.5 287.9 138.9 290.7L135.1 297.1C135 297 134.9 297 134.8 296.9L134.5 297.2C131.8 300.4 128.6 302.9 125.9 302.9C123.6 302.9 122.2 301.4 123.9 298.4L124.3 297.7C126.7 298.7 131.3 298.2 134.1 293.3L134.6 292.4C136.6 288.9 134.7 286.3 131.6 286.3C128.5 286.3 126.1 287.9 124.5 290.7L120.5 297.5C118.1 301.5 120.2 305.2 124.6 305.2C127.9 305.2 130.6 303.2 133.4 300.6C133.3 303.2 135.3 305.2 138.5 305.2C141.9 305.3 144.6 303.5 147.3 301.2ZM110.4 287.2L113.5 282C116.3 277.2 119.8 280 117.9 283.6C116.4 286.3 114.3 287.2 110.4 287.2ZM106.3 304.5C104 304.5 102.3 304 100.9 303.2C101.6 302.4 102.2 301.5 102.8 300.5L109.2 289.5L110.2 289.6C119 291.4 115.5 304.5 106.3 304.5ZM115.7 289C123.3 286.4 123.9 276.9 116.4 276.9C114.3 276.9 111.9 278.4 110.2 281.3L100 298.9C99.6 299.7 99.1 300.4 98.5 301C95.9 297.4 96.6001 292 100.3 289.7L98.8 287.8C90.9 292.8 93.2001 307.4 106.4 307.4C117.7 307.4 122.9 293.8 115.7 289Z" fill="white"/>
</svg>
