<svg width="75" height="72" fill="none" xmlns="http://www.w3.org/2000/svg"><path d="M29.7 65h16V41.2h-16V65Zm2.9-20.9h10.1v18H32.6v-18Z" fill="#81B3D2"/><path d="m72.8 39.3 2.1-2.1-9.9-9.9V0H51.1v13.6L37.5 0 .2 37.2l2.1 2.1 7.8-7.8v37.6h-4V72H70v-2.9h-5.1V31.5l7.9 7.8ZM62 69.1H13V28.5L37.5 4.1 62 28.5v40.6Zm0-44.7-7.9-7.9V2.9H62v21.5Z" fill="#81B3D2"/><path d="M29.9 27.1c0 4.3 3.5 7.7 7.7 7.7 4.3 0 7.8-3.5 7.8-7.7 0-4.3-3.5-7.7-7.8-7.7a7.7 7.7 0 0 0-7.7 7.7Zm7.8-5a5 5 0 0 1 5 4.9 5 5 0 0 1-5 4.9 5 5 0 0 1-5-4.9 5 5 0 0 1 5-4.9ZM20.1 41.2h-3v3.9h3v-3.9ZM26 41.2h-3v3.9h3v-3.9ZM20.1 47.2h-3v3.9h3v-3.9ZM26 47.2h-3v3.9h3v-3.9ZM52 41.2h-3v3.9h3v-3.9ZM57.9 41.2h-3v3.9h3v-3.9ZM52 47.2h-3v3.9h3v-3.9ZM57.9 47.2h-3v3.9h3v-3.9Z" fill="#81B3D2"/></svg>