<svg width="18" height="15" fill="none" xmlns="http://www.w3.org/2000/svg"><path d="m16.62 1.52.18-.06c-.16.28-.38.51-.55.69l-.71.7.99.15h.25c-.23.23-.47.37-.64.43l-.33.1-.01.36c-.1 3.33-.9 6-2.51 7.82-1.6 1.8-4.04 2.84-7.58 2.79H5.18a1.84 1.84 0 0 1-.23-.02 12.66 12.66 0 0 1-2.07-.39 9.05 9.05 0 0 1-1.39-.47 6.3 6.3 0 0 0 3.84-1.35l.67-.6-.86-.25-.43-.11h-.02l-.43-.12c-.3-.08-.6-.19-.87-.35a2.07 2.07 0 0 1-.94-1.2c.2 0 .43 0 .72-.04l1.37-.2-1.18-.73-.08-.04A6.83 6.83 0 0 1 1.65 7.4c-.28-.33-.5-.73-.6-1.26.3.1.63.16.85.16l.12-.99s-.02 0-.09-.07a1.85 1.85 0 0 1-.26-.33 4.68 4.68 0 0 1-.61-3.15C2.88 3.49 5.02 5 8.47 5.2l.49.03.04-.49a5.5 5.5 0 0 1 .83-2.68A3.51 3.51 0 0 1 11.74.68c1.58-.44 2.76.27 3.24 1l.2.3.36-.1c.36-.1.73-.23 1.07-.36Z" fill="#83B3D3" stroke="#000"/></svg>