<svg width="115" height="33" fill="none" xmlns="http://www.w3.org/2000/svg"><path d="M0 12.9v2.6h2.5v-2.6H0ZM11.6 4.5c-1.6 0-2.8.7-3.6 1.7h-.1V0h-2v15.5h2v-5.3c0-2.1 1.3-3.6 3.3-3.6 1.8 0 2.9 1.4 2.9 3.2v5.7h2V9.4c.1-3-1.8-4.9-4.5-4.9ZM26.6 4.8h-4.8V1.1h-2v3.8h-1.9v2h1.9v6c0 1.7 1 2.7 2.7 2.7h4.1v-2h-3.7c-.7 0-1.1-.4-1.1-1.1V6.8h4.8v-2ZM41.1 4.6c-1.6 0-2.9.8-3.5 2.1h-.1a3.7 3.7 0 0 0-3.4-2.1c-1.4 0-2.5.8-3.1 1.8h-.1V4.8H29v10.6h2V10c0-2 1-3.5 2.6-3.5 1.5 0 2.4 1 2.4 2.6v6.3h2V9.8c0-2.4 1.4-3.3 2.6-3.3 1.5 0 2.4 1 2.4 2.6v6.3h2V8.9c.1-2.5-1.4-4.3-3.9-4.3ZM47.8 12.7c0 1.7 1 2.7 2.8 2.7h2v-2h-1.7c-.7 0-1.1-.4-1.1-1.1V0h-2v12.7ZM28.9 19.7a4.9 4.9 0 0 0-3.9-1.8c-3.1 0-5.4 2.3-5.4 5.6s2.3 5.6 5.4 5.6c1.8 0 3-.8 3.8-1.9h.1v1.6h2V18.2h-2v1.5Zm-3.6 7.4a3.5 3.5 0 0 1-3.6-3.6c0-2 1.4-3.6 3.6-3.6s3.6 1.6 3.6 3.6c0 1.9-1.4 3.6-3.6 3.6ZM44.2 22c-.5-2.4-2.6-4.1-5.4-4.1a5.4 5.4 0 0 0-5.6 5.6c0 3.1 2.2 5.6 5.6 5.6 2.8 0 4.9-1.8 5.4-4.2h-2.1a3.4 3.4 0 0 1-3.3 2.3 3.5 3.5 0 0 1-3.6-3.6c0-2 1.4-3.6 3.6-3.6 1.6 0 2.8 1 3.3 2.2h2.1V22ZM55.1 19.7a4.9 4.9 0 0 0-3.9-1.8c-3.1 0-5.4 2.3-5.4 5.6s2.3 5.6 5.4 5.6c1.8 0 3-.8 3.8-1.9h.1v1.6h2V18.2h-2v1.5Zm-3.6 7.4a3.5 3.5 0 0 1-3.6-3.6c0-2 1.4-3.6 3.6-3.6s3.6 1.6 3.6 3.6c0 1.9-1.5 3.6-3.6 3.6ZM68.7 19.8a5 5 0 0 0-3.9-1.9c-3.1 0-5.4 2.3-5.4 5.6s2.2 5.6 5.4 5.6c1.7 0 3-.8 3.8-1.8h.1v1.5h2V13.4h-2v6.4Zm-3.6 7.3a3.5 3.5 0 0 1-3.6-3.6c0-2 1.4-3.6 3.6-3.6s3.6 1.6 3.6 3.6c-.1 2-1.5 3.6-3.6 3.6ZM78.3 17.9a5.4 5.4 0 0 0-5.5 5.6c0 3 2.1 5.6 5.5 5.6 2.5 0 4.5-1.3 5.2-3.6h-2.1c-.5 1-1.6 1.6-3 1.6-1.9 0-3.3-1.3-3.4-2.9h8.8c.2-3.6-2-6.3-5.5-6.3Zm0 1.9c1.7 0 3 1 3.3 2.6h-6.5a3.2 3.2 0 0 1 3.2-2.6ZM98.2 17.9a4 4 0 0 0-3.6 2h-.1c-.6-1.2-1.8-2-3.4-2-1.4 0-2.5.7-3.1 1.8v-1.5h-1.9v10.6h2v-5.4c0-2 1-3.4 2.6-3.5 1.5 0 2.4 1 2.4 2.6v6.3h2v-5.6c0-2.4 1.4-3.3 2.6-3.3 1.5 0 2.4 1 2.4 2.6v6.3h2v-6.5c.1-2.6-1.4-4.4-3.9-4.4ZM109.4 27l-3.6-8.9h-2.2l4.8 11.6c-.3.9-.7 1.2-1.7 1.2h-2.5v2h2.5c1.8 0 2.8-.8 3.5-2.6l4.7-12.2h-2.1l-3.4 8.9Z" fill="#000"/></svg>