<svg width="74" height="70" fill="none" xmlns="http://www.w3.org/2000/svg"><path d="M69.9 47H4.1A4.2 4.2 0 0 0 0 51.3v3.5c0 2.4 1.9 4.3 4.1 4.3H5v1.1a10 10 0 0 0 9.6 10.1h44.6c5.3 0 9.6-4.5 9.6-10.1v-1.1h.9c2.3 0 4.1-1.9 4.1-4.3v-3.5a4 4 0 0 0-3.9-4.3ZM66 60.2c0 3.9-3 7-6.7 7H14.6a6.9 6.9 0 0 1-6.7-7v-1.1H66v1.1Zm5.1-5.4c0 .7-.6 1.3-1.2 1.3H4c-.7 0-1.2-.6-1.2-1.3v-3.5c0-.7.6-1.3 1.2-1.3h65.8c.7 0 1.2.6 1.2 1.3l.1 3.5ZM15.6 38.4l5.4 4.1 5.3-4.1 5.3 4.1 5.3-4.1 5.4 4.1 5.3-4.1 5.3 4.1 5.4-4.1 5.3 4.1 6.2-4.7-1.7-2.5-4.5 3.4-5.3-4.1-5.4 4.1-5.3-4.1-5.3 4.1-5.4-4.1-5.3 4.1-5.3-4.1-5.3 4.1-5.4-4.1-5.3 4.1-4.5-3.4-1.7 2.5 6.2 4.7 5.3-4.1ZM8 31.5h60.8l.1-1.9v-1.2C68.2 12.7 54.2 0 37 0 19.7 0 5.7 12.7 5 28.5v1.2l.1 1.9H8v-.1ZM37 3c15.6 0 28.4 11.3 29 25.5H8C8.6 14.4 21.4 3 37 3Z" fill="#81B3D2"/><path d="M37 17.3a2 2 0 0 0 1.9-2 2 2 0 0 0-1.9-2 2 2 0 0 0-1.9 2c0 1.1.9 2 1.9 2ZM29.2 12.2a2 2 0 0 0 1.9-2 2 2 0 0 0-1.9-2 2 2 0 0 0-1.9 2c0 1.1.9 2 1.9 2ZM44.7 12.2a2 2 0 0 0 1.9-2 2 2 0 0 0-1.9-2 2 2 0 0 0-1.9 2c0 1.1.9 2 1.9 2Z" fill="#81B3D2"/></svg>